<?xml version="1.0" encoding="UTF-8"?>
<svg version="1.1" xmlns="http://www.w3.org/2000/svg" width="464" height="332">
<path d="M0 0 C153.12 0 306.24 0 464 0 C464 109.56 464 219.12 464 332 C310.88 332 157.76 332 0 332 C0 222.44 0 112.88 0 0 Z " fill="#0B0B0A" transform="translate(0,0)"/>
<path d="M0 0 C1.87796516 -0.03366417 1.87796516 -0.03366417 3.79386902 -0.06800842 C5.15854768 -0.08102801 6.52323925 -0.09274968 7.88793945 -0.10327148 C8.5791218 -0.11017439 9.27030415 -0.11707729 9.98243141 -0.12418938 C13.64323771 -0.15999122 17.30389073 -0.18354459 20.96484375 -0.19726562 C24.72676997 -0.21377552 28.48680357 -0.2721475 32.24809551 -0.34040928 C35.15741596 -0.38542221 38.06629248 -0.39877678 40.97593117 -0.40388298 C42.36136328 -0.41172801 43.74678473 -0.43122441 45.13187218 -0.46310616 C52.12128634 -0.61332593 57.35083754 -0.66701551 62.9519043 3.83325195 C63.60170258 4.46648376 64.25150085 5.09971558 64.92098999 5.75213623 C68.17517416 8.47895378 71.66884943 8.26292714 75.7512207 8.15063477 C78.45153108 8.14832483 81.11376589 8.21207824 83.8137207 8.33813477 C84.8037207 9.32813477 84.8037207 9.32813477 85.8137207 10.33813477 C85.27800642 13.87384905 85.27800642 13.87384905 83.8137207 15.33813477 C81.1923758 15.41729804 78.59779629 15.43185119 75.97680664 15.40405273 C74.74505455 15.39704346 74.74505455 15.39704346 73.48841858 15.38989258 C71.6986537 15.37936216 69.90890046 15.36669054 68.11916351 15.35216904 C65.2864919 15.3302324 62.45388638 15.31609723 59.62115479 15.30447388 C51.56464544 15.27080063 43.50824515 15.22930904 35.4519043 15.16674805 C30.52948534 15.12908417 25.60718057 15.10607031 20.68463898 15.09244156 C18.80754674 15.08438608 16.93046982 15.07077547 15.05345917 15.05150986 C12.42490106 15.02501175 9.79688806 15.0171357 7.16821289 15.01342773 C6.39294754 15.00107086 5.61768219 14.98871399 4.81892395 14.97598267 C0.3067569 14.99275594 -2.60795691 15.52382794 -6.1862793 18.33813477 C-7.60102648 21.16762912 -7.33707245 23.56384073 -7.36328125 26.72802734 C-7.37313805 27.71128242 -7.37313805 27.71128242 -7.38319397 28.71440125 C-7.40292986 30.88715731 -7.41459047 33.05984423 -7.42456055 35.23266602 C-7.42863607 35.97480536 -7.4327116 36.71694469 -7.43691063 37.4815731 C-7.4577732 41.41007586 -7.47207374 45.33854367 -7.48144531 49.26708984 C-7.49250674 53.32257599 -7.52690232 57.37751298 -7.56661701 61.43280506 C-7.59277805 64.55296338 -7.60113668 67.67299079 -7.60472679 70.79324913 C-7.6095946 72.28796787 -7.62121428 73.7826807 -7.63976479 75.27729225 C-7.66414593 77.37198853 -7.66319418 79.4652635 -7.65625 81.56005859 C-7.66211624 82.75093582 -7.66798248 83.94181305 -7.67402649 85.16877747 C-7.06160917 89.14823513 -6.26575702 90.72815838 -3.1862793 93.33813477 C-0.1948704 93.83462065 2.23194051 94.01003069 5.22241211 93.96582031 C6.06834427 93.97309143 6.91427643 93.98036255 7.7858429 93.987854 C10.57941542 94.00644375 13.37171013 93.99038264 16.1652832 93.97485352 C18.10534818 93.98289091 20.04540434 93.99340742 21.98544312 94.00630188 C27.09097588 94.03487091 32.19610283 94.03542119 37.30169678 94.02844238 C45.48117255 94.0211218 53.66051683 94.05235326 61.83988571 94.09089088 C64.70175124 94.09977273 67.56333622 94.09442697 70.42520142 94.08732605 C72.17140785 94.090709 73.91761364 94.09445781 75.66381836 94.09863281 C76.46385788 94.09293777 77.2638974 94.08724274 78.08818054 94.08137512 C83.58666102 94.11107508 83.58666102 94.11107508 85.8137207 96.33813477 C85.4387207 98.96313477 85.4387207 98.96313477 84.8137207 101.33813477 C83.52336914 101.35231445 82.23301758 101.36649414 80.90356445 101.38110352 C79.18608189 101.42802927 77.46863508 101.4762765 75.7512207 101.52563477 C74.90366211 101.53143555 74.05610352 101.53723633 73.18286133 101.54321289 C71.93085938 101.58671875 71.93085938 101.58671875 70.65356445 101.63110352 C69.89422607 101.64681396 69.1348877 101.66252441 68.35253906 101.67871094 C65.52878143 102.21107785 65.52878143 102.21107785 62.93652344 104.83862305 C57.42801751 108.96468522 50.58946587 108.07721757 44.0090332 108.03735352 C42.56085628 108.04327168 41.11268425 108.05052227 39.66452026 108.05903625 C36.6366823 108.07088285 33.60958093 108.06426819 30.58178711 108.04492188 C26.7224539 108.02206936 22.8653277 108.04878824 19.00621223 108.08998394 C16.01701193 108.11570038 13.02832981 108.11294451 10.03905869 108.10209084 C8.61744053 108.10061493 7.19578048 108.10816823 5.77426529 108.12534142 C-1.86317577 108.2026278 -8.26036805 108.14004669 -14.38261414 103.17767334 C-22.39539087 95.00552908 -21.91248738 85.90781799 -21.81518555 75.11547852 C-21.81601563 73.44356634 -21.81848028 71.77165426 -21.82249451 70.0997467 C-21.8253415 66.60888886 -21.81075835 63.11867654 -21.78320312 59.62792969 C-21.74909522 55.17038284 -21.75515761 50.7139871 -21.7738657 46.25638485 C-21.78447097 42.80833974 -21.77546647 39.36055909 -21.76048088 35.91253853 C-21.75532623 34.26962636 -21.75574761 32.62668626 -21.76202583 30.983778 C-21.80357608 13.5832219 -21.80357608 13.5832219 -15.4050293 6.31469727 C-14.8378418 5.86868164 -14.2706543 5.42266602 -13.6862793 4.96313477 C-13.1190918 4.50165039 -12.5519043 4.04016602 -11.9675293 3.56469727 C-7.89977944 0.76365899 -4.97747865 0.07537805 0 0 Z " fill="#F89F0E" transform="translate(199.186279296875,62.661865234375)"/>
<path d="M0 0 C2.97 0 5.94 0 9 0 C9.2475 1.11375 9.495 2.2275 9.75 3.375 C10.63142419 6.9791052 10.63142419 6.9791052 12.875 8.5 C16.95035156 9.45890625 20.25182541 7.56173941 24 6 C26.5625 8.25 26.5625 8.25 29 11 C28.9375 13 28.9375 13 28 15 C26.226191 18.84325282 25.82528648 20.88850267 27 25 C29.64 25.33 32.28 25.66 35 26 C35 28.64 35 31.28 35 34 C31.91190305 35.76462683 30.76687864 36 27 36 C26.22868094 39.31184707 26.22868094 39.31184707 26 43 C27.43990623 45.17032476 27.43990623 45.17032476 29 47 C28.90530858 50.03012552 28.00388172 50.9957654 25.9375 53.25 C24.9784375 54.11625 24.9784375 54.11625 24 55 C19.125 53.125 19.125 53.125 18 52 C15.66055264 52.28730055 13.3260857 52.61936779 11 53 C10.814375 54.7015625 10.814375 54.7015625 10.625 56.4375 C10.41875 57.613125 10.2125 58.78875 10 60 C7.01787087 61.49106457 4.28390342 61.11941467 1 61 C-0.96822886 59.03177114 -0.66248381 55.65191291 -1 53 C-4.98677336 52.2693461 -4.98677336 52.2693461 -9 52 C-11.02977977 53.27219734 -11.02977977 53.27219734 -12 55 C-14.84574968 53.72431911 -17.18089981 52.58503711 -19 50 C-18.57894737 45.57894737 -18.57894737 45.57894737 -17 44 C-17.28730055 41.66055264 -17.61936779 39.3260857 -18 37 C-20.64 36.01 -23.28 35.02 -26 34 C-26 31.69 -26 29.38 -26 27 C-22.04 25.515 -22.04 25.515 -18 24 C-17.32326553 20.59679066 -17.32326553 20.59679066 -17 17 C-17.66 16.34 -18.32 15.68 -19 15 C-18.82194873 11.61702587 -18.21162756 10.23727939 -15.9375 7.6875 C-15.298125 7.130625 -14.65875 6.57375 -14 6 C-12.88625 6.4640625 -12.88625 6.4640625 -11.75 6.9375 C-7.38645049 8.752898 -7.38645049 8.752898 -2.8125 8.5 C-0.60414056 6.99062773 -0.60414056 6.99062773 -0.25 3.375 C-0.1675 2.26125 -0.085 1.1475 0 0 Z " fill="#F69D0E" transform="translate(228,87)"/>
<path d="M0 0 C3.1512514 1.1160682 5.06290149 2.35207384 7.08203125 5.05078125 C8.98649872 9.22440146 8.75134376 13.6153572 8 18.0625 C6.19881522 21.06447464 5.09667268 22.51416366 2 24.0625 C-1.5 24.25 -1.5 24.25 -5 24.0625 C-5.66 23.4025 -6.32 22.7425 -7 22.0625 C-7.33 25.6925 -7.66 29.3225 -8 33.0625 C-9.98 33.0625 -11.96 33.0625 -14 33.0625 C-14 22.5025 -14 11.9425 -14 1.0625 C-12.35 1.0625 -10.7 1.0625 -9 1.0625 C-8.67 1.7225 -8.34 2.3825 -8 3.0625 C-7.29875 2.546875 -6.5975 2.03125 -5.875 1.5 C-3 0.0625 -3 0.0625 0 0 Z " fill="#D6D5D5" transform="translate(187,217.9375)"/>
<path d="M0 0 C2.9375 0.8125 2.9375 0.8125 5.9375 2.8125 C6.63875 2.296875 7.34 1.78125 8.0625 1.25 C10.9375 -0.1875 10.9375 -0.1875 14 -0.1875 C17.83870436 1.11929297 18.83387566 2.34533237 20.9375 5.8125 C21.41213952 8.9353007 21.31675137 11.97574066 21.1875 15.125 C21.16945312 15.96095703 21.15140625 16.79691406 21.1328125 17.65820312 C21.08591126 19.71013228 21.01417411 21.76146756 20.9375 23.8125 C18.9575 23.8125 16.9775 23.8125 14.9375 23.8125 C14.87691406 22.75289062 14.81632812 21.69328125 14.75390625 20.6015625 C14.66949873 19.21352779 14.58485083 17.82550768 14.5 16.4375 C14.46068359 15.73882812 14.42136719 15.04015625 14.38085938 14.3203125 C14.19469866 10.43889508 14.19469866 10.43889508 12.9375 6.8125 C11.2875 6.8125 9.6375 6.8125 7.9375 6.8125 C7.6075 12.4225 7.2775 18.0325 6.9375 23.8125 C4.6275 23.8125 2.3175 23.8125 -0.0625 23.8125 C-0.3925 18.2025 -0.7225 12.5925 -1.0625 6.8125 C-2.7125 6.8125 -4.3625 6.8125 -6.0625 6.8125 C-7.58356634 9.85463267 -7.43679338 13.09297572 -7.625 16.4375 C-7.66818359 17.14390625 -7.71136719 17.8503125 -7.75585938 18.578125 C-7.86194751 20.32268537 -7.96272889 22.06756697 -8.0625 23.8125 C-10.0425 23.8125 -12.0225 23.8125 -14.0625 23.8125 C-14.0625 16.2225 -14.0625 8.6325 -14.0625 0.8125 C-12.0825 0.8125 -10.1025 0.8125 -8.0625 0.8125 C-7.7325 1.4725 -7.4025 2.1325 -7.0625 2.8125 C-6.52625 2.296875 -5.99 1.78125 -5.4375 1.25 C-3.0625 -0.1875 -3.0625 -0.1875 0 0 Z " fill="#D0CFD0" transform="translate(148.0625,218.1875)"/>
<path d="M0 0 C0.66 0.33 1.32 0.66 2 1 C2 1.66 2 2.32 2 3 C3.051875 2.319375 4.10375 1.63875 5.1875 0.9375 C7.68606199 -0.47801597 8.75857457 -1 11.6875 -1 C14.73075006 0.31600002 16.01273725 1.29499935 18 4 C18.49697261 7.2622567 18.37635612 10.45988114 18.25 13.75 C18.23195313 14.63816406 18.21390625 15.52632812 18.1953125 16.44140625 C18.14827374 18.62870848 18.08257009 20.81379816 18 23 C16.02 23 14.04 23 12 23 C11.67 17.72 11.34 12.44 11 7 C8.525 6.505 8.525 6.505 6 6 C3.94077598 8.05922402 4.58572421 12.21708124 4.4375 15.0625 C4.39431641 15.82111328 4.35113281 16.57972656 4.30664062 17.36132812 C4.20026367 19.24065438 4.09960066 21.12030244 4 23 C2.02 23 0.04 23 -2 23 C-2 17.39 -2 11.78 -2 6 C-3.98 6 -5.96 6 -8 6 C-10.05922402 8.05922402 -9.41427579 12.21708124 -9.5625 15.0625 C-9.60568359 15.82111328 -9.64886719 16.57972656 -9.69335938 17.36132812 C-9.79973633 19.24065438 -9.90039934 21.12030244 -10 23 C-11.98 23 -13.96 23 -16 23 C-16 15.41 -16 7.82 -16 0 C-13.33333333 0 -10.66666667 0 -8 0 C-4.67803635 -1.10732122 -3.31749961 -0.85064093 0 0 Z " fill="#D9D8D8" transform="translate(322,219)"/>
<path d="M0 0 C2.70567626 1.82339052 4.53728718 3.07457436 6 6 C6.51512617 10.09157355 6.94367269 14.23589546 4.953125 17.95703125 C3.18601378 20.09315687 1.49101659 21.75449171 -1 23 C-6.29449372 23.34717992 -9.74663444 23.52421718 -14 20 C-17.16955197 16.06538376 -17.53348798 12.97922113 -17 8 C-15.32375739 4.31226627 -13.42746406 2.14216504 -10 0 C-6.18323682 -1.27225439 -3.91280349 -0.87700768 0 0 Z " fill="#D6D5D5" transform="translate(125,219)"/>
<path d="M0 0 C2.70567626 1.82339052 4.53728718 3.07457436 6 6 C6.42308538 10.59698532 6.53894467 14.70653278 4.75 19 C1.64699478 22.54629168 -0.18792785 22.93554983 -4.9375 23.3125 C-8.69362193 23.21457503 -11.0059703 22.37761182 -14 20 C-16.97307695 15.54038458 -16.62015709 11.22922586 -16 6 C-14.2087612 2.7492333 -12.83510107 1.49654658 -9.6875 -0.375 C-6.08756135 -1.21219504 -3.58158403 -0.89539601 0 0 Z " fill="#D7D6D7" transform="translate(359,219)"/>
<path d="M0 0 C2.9171223 2.01420349 4.17721921 3.59520935 5.625 6.8125 C5.625 7.8025 5.625 8.7925 5.625 9.8125 C3.315 9.8125 1.005 9.8125 -1.375 9.8125 C-1.66375 9.173125 -1.9525 8.53375 -2.25 7.875 C-3.20323451 5.66043921 -3.20323451 5.66043921 -5.375 4.8125 C-8.33288569 4.3957448 -8.33288569 4.3957448 -11.375 4.8125 C-14.35189232 7.81035635 -14.80679614 10.16008632 -14.8125 14.3125 C-14.70058088 17.80064599 -14.55514697 19.49544134 -12.8125 22.5625 C-9.27610049 24.37603821 -7.12691249 23.92417777 -3.375 22.8125 C-1.86205712 20.87652968 -1.86205712 20.87652968 -1.375 18.8125 C0.935 18.8125 3.245 18.8125 5.625 18.8125 C5.21065093 23.64657252 3.24706046 25.70787674 -0.375 28.8125 C-5.37949839 30.48066613 -10.40817865 30.7103967 -15.25 28.5 C-15.95125 27.943125 -16.6525 27.38625 -17.375 26.8125 C-18.2103125 26.1628125 -18.2103125 26.1628125 -19.0625 25.5 C-22.14289314 21.53949454 -22.83904685 16.83708797 -22.6875 11.90234375 C-21.91703975 6.74989085 -19.8574874 2.91574644 -15.6875 -0.1875 C-10.1333018 -1.86423908 -5.48833883 -1.93108218 0 0 Z " fill="#D7D6D7" transform="translate(100.375,212.1875)"/>
<path d="M0 0 C3.63218181 2.55025531 5.2270072 4.69565063 6 9 C6 13.99679168 4.7317545 15.86900868 1.6953125 19.60546875 C-1.15216914 21.94775204 -3.99877873 21.52302479 -7.55078125 21.4296875 C-11.24379756 20.7817899 -12.82728537 18.94367789 -15 16 C-16.5547669 12.89046621 -16.28644437 10.43733239 -16 7 C-14.38343846 3.94007995 -12.9237629 1.75880524 -10.25 -0.4375 C-6.6870478 -1.32823805 -3.46985953 -1.04646557 0 0 Z " fill="#100F0D" transform="translate(238,107)"/>
<path d="M0 0 C3.13866907 2.04974306 4.61663768 3.42879533 5.515625 7.11328125 C5.7790161 9.06445477 5.90001708 11.03366931 6 13 C0.72 13 -4.56 13 -10 13 C-8.50608785 17.14861659 -8.50608785 17.14861659 -5.5 17.875 C-4.2625 17.936875 -4.2625 17.936875 -3 18 C-2.34 17.34 -1.68 16.68 -1 16 C2.125 15.875 2.125 15.875 5 16 C3.56521739 20.54347826 3.56521739 20.54347826 1.375 22.3125 C-2.85921855 23.53819484 -7.05950389 23.52445841 -11.3125 22.375 C-14.35571302 19.89534495 -15.687911 16.88757446 -16.32421875 13.0390625 C-16.60812849 7.92868713 -15.33153769 5.01744251 -12 1 C-8.26992673 -0.86503664 -4.06217389 -0.54928766 0 0 Z " fill="#D6D5D5" transform="translate(230,219)"/>
<path d="M0 0 C2.87029869 1.79393668 4.49131638 2.98263276 6 6 C6 8.31 6 10.62 6 13 C1.05 13 -3.9 13 -9 13 C-8.01 14.65 -7.02 16.3 -6 18 C-2.70924004 17.62095792 -2.70924004 17.62095792 0 16 C1.66617115 15.95936168 3.33388095 15.957279 5 16 C4.64978759 18.53903996 4.15988127 19.82093298 2.4375 21.75 C-1.01980897 23.52297896 -4.23396691 23.55404861 -8 23 C-11.86217948 21.32079153 -13.43904552 19.85446217 -15 16 C-15.68575947 11.09602241 -15.74079295 7.20996181 -13.125 2.9375 C-9.14212168 -0.69394788 -5.20525336 -0.67425562 0 0 Z " fill="#D6D6D6" transform="translate(297,219)"/>
<path d="M0 0 C1.81242052 -0.02687279 3.62495233 -0.04633715 5.4375 -0.0625 C6.44683594 -0.07410156 7.45617187 -0.08570313 8.49609375 -0.09765625 C11 0 11 0 12 1 C12.25301239 5.13962283 12.18522549 9.29105996 12.1875 13.4375 C12.19974609 14.60861328 12.21199219 15.77972656 12.22460938 16.98632812 C12.22750977 18.66178711 12.22750977 18.66178711 12.23046875 20.37109375 C12.23457764 21.40161865 12.23868652 22.43214355 12.24291992 23.49389648 C12 26 12 26 10 28 C8.125 28.265625 8.125 28.265625 6 28.25 C4.948125 28.25773437 4.948125 28.25773437 3.875 28.265625 C2 28 2 28 0 26 C-0.22705078 23.38623047 -0.22705078 23.38623047 -0.1953125 20.1171875 C-0.18886719 18.95058594 -0.18242187 17.78398437 -0.17578125 16.58203125 C-0.15902344 15.35871094 -0.14226562 14.13539063 -0.125 12.875 C-0.11597656 11.64394531 -0.10695313 10.41289062 -0.09765625 9.14453125 C-0.07402548 6.09616185 -0.04108054 3.04817618 0 0 Z " fill="#F49F11" transform="translate(269,167)"/>
<path d="M0 0 C2.4375 1.375 2.4375 1.375 4 3 C4 3.99 4 4.98 4 6 C2.33388095 6.042721 0.66617115 6.04063832 -1 6 C-1.33 5.67 -1.66 5.34 -2 5 C-3.99958364 4.95919217 -6.00045254 4.95745644 -8 5 C-8 5.66 -8 6.32 -8 7 C-7.31292969 7.18175781 -6.62585938 7.36351562 -5.91796875 7.55078125 C-5.01691406 7.80214844 -4.11585938 8.05351562 -3.1875 8.3125 C-2.29417969 8.55613281 -1.40085937 8.79976562 -0.48046875 9.05078125 C2.09735277 10.03725468 3.33185546 10.82603099 5 13 C5.5625 15.9375 5.5625 15.9375 5 19 C1.91217373 21.93343496 -0.79704309 23.26344345 -5 23.5625 C-9.65615409 23.33864644 -11.8514948 21.30593046 -15 18 C-15 17.34 -15 16.68 -15 16 C-12.125 15.875 -12.125 15.875 -9 16 C-8.34 16.66 -7.68 17.32 -7 18 C-4.41645782 18.16687448 -4.41645782 18.16687448 -2 18 C-2 17.01 -2 16.02 -2 15 C-2.69867188 14.81824219 -3.39734375 14.63648438 -4.1171875 14.44921875 C-5.02726562 14.19785156 -5.93734375 13.94648438 -6.875 13.6875 C-7.77992188 13.44386719 -8.68484375 13.20023438 -9.6171875 12.94921875 C-12 12 -12 12 -14 9 C-14 5.5 -14 5.5 -13 2 C-8.59185756 -1.35858472 -5.26162825 -1.36412584 0 0 Z " fill="#D5D4D4" transform="translate(382,219)"/>
<path d="M0 0 C2.4375 1.9375 2.4375 1.9375 4 4 C4 4.66 4 5.32 4 6 C2.02 6 0.04 6 -2 6 C-2 5.34 -2 4.68 -2 4 C-3.98 4.33 -5.96 4.66 -8 5 C-8 5.66 -8 6.32 -8 7 C-7.30132812 7.19335938 -6.60265625 7.38671875 -5.8828125 7.5859375 C-4.97273437 7.84632813 -4.06265625 8.10671875 -3.125 8.375 C-2.22007812 8.63023437 -1.31515625 8.88546875 -0.3828125 9.1484375 C2 10 2 10 4 12 C4.56617647 18.22794118 4.56617647 18.22794118 2.625 20.875 C-1.10117809 23.45466175 -4.60377354 23.32003181 -9 23 C-11.9375 22.3125 -11.9375 22.3125 -14 21 C-14.8125 18.375 -14.8125 18.375 -15 16 C-12.125 15.875 -12.125 15.875 -9 16 C-8.34 16.66 -7.68 17.32 -7 18 C-4.41645782 18.16687448 -4.41645782 18.16687448 -2 18 C-2 17.01 -2 16.02 -2 15 C-2.69867188 14.80664062 -3.39734375 14.61328125 -4.1171875 14.4140625 C-5.02726563 14.15367187 -5.93734375 13.89328125 -6.875 13.625 C-7.77992188 13.36976563 -8.68484375 13.11453125 -9.6171875 12.8515625 C-12 12 -12 12 -14 10 C-14.375 6.5625 -14.375 6.5625 -14 3 C-9.82004268 -1.32409378 -5.63108068 -1.28428156 0 0 Z " fill="#D6D5D5" transform="translate(253,219)"/>
<path d="M0 0 C2.4375 1.9375 2.4375 1.9375 4 4 C4 4.66 4 5.32 4 6 C2.02 6 0.04 6 -2 6 C-2 5.34 -2 4.68 -2 4 C-3.98 4.33 -5.96 4.66 -8 5 C-8 5.66 -8 6.32 -8 7 C-7.21753906 7.27714844 -6.43507813 7.55429688 -5.62890625 7.83984375 C-4.61699219 8.20207031 -3.60507812 8.56429687 -2.5625 8.9375 C-1.55316406 9.29714844 -0.54382813 9.65679687 0.49609375 10.02734375 C3 11 3 11 4 12 C4.47094801 18.35779817 4.47094801 18.35779817 2.625 20.875 C-1.07547612 23.43686808 -4.62208471 23.46966141 -9 23 C-11.9375 21.75 -11.9375 21.75 -14 20 C-14.8125 17.8125 -14.8125 17.8125 -15 16 C-13.02 16 -11.04 16 -9 16 C-9 16.66 -9 17.32 -9 18 C-6.36 18 -3.72 18 -1 18 C-1.33 17.01 -1.66 16.02 -2 15 C-4.26452808 14.04523692 -4.26452808 14.04523692 -6.9375 13.4375 C-11.8011583 12.1988417 -11.8011583 12.1988417 -14 10 C-14.375 6.5625 -14.375 6.5625 -14 3 C-9.82004268 -1.32409378 -5.63108068 -1.28428156 0 0 Z " fill="#D7D6D7" transform="translate(275,219)"/>
<path d="M0 0 C4.875 0.875 4.875 0.875 6 2 C6.12514928 3.97619447 6.1757276 5.95738173 6.1875 7.9375 C6.20167969 9.01902344 6.21585937 10.10054687 6.23046875 11.21484375 C6 14 6 14 4 16 C1.375 15.625 1.375 15.625 -1 15 C-1.33 14.01 -1.66 13.02 -2 12 C-4.97 11.67 -7.94 11.34 -11 11 C-11 9.02 -11 7.04 -11 5 C-10.37351562 4.97421875 -9.74703125 4.9484375 -9.1015625 4.921875 C-8.28429687 4.86515625 -7.46703125 4.8084375 -6.625 4.75 C-5.81289063 4.70359375 -5.00078125 4.6571875 -4.1640625 4.609375 C-1.81161073 4.2077908 -1.81161073 4.2077908 -0.7109375 1.953125 C-0.47632813 1.30859375 -0.24171875 0.6640625 0 0 Z " fill="#EC9A11" transform="translate(295,177)"/>
<path d="M0 0 C1.98 0 3.96 0 6 0 C6.33 0.66 6.66 1.32 7 2 C7.66 1.34 8.32 0.68 9 0 C11.625 -0.125 11.625 -0.125 14 0 C14 1.65 14 3.3 14 5 C13.030625 5.309375 12.06125 5.61875 11.0625 5.9375 C8.15934208 6.69523342 8.15934208 6.69523342 7 8 C6.76346477 10.52596259 6.57826308 13.03107207 6.4375 15.5625 C6.39431641 16.27341797 6.35113281 16.98433594 6.30664062 17.71679688 C6.20028223 19.47761912 6.09961154 21.2387832 6 23 C4.02 23 2.04 23 0 23 C0 15.41 0 7.82 0 0 Z " fill="#D8D7D7" transform="translate(199,219)"/>
<path d="M0 0 C2.5 0.1875 2.5 0.1875 5 1 C5.66 1.99 6.32 2.98 7 4 C8.96361864 4.57748803 8.96361864 4.57748803 11.125 4.6875 C13.043125 4.8421875 13.043125 4.8421875 15 5 C15 6.98 15 8.96 15 11 C13.1128125 11.12375 13.1128125 11.12375 11.1875 11.25 C7.66188788 11.66557143 7.66188788 11.66557143 5 14.0625 C4.67 14.701875 4.34 15.34125 4 16 C-0.875 15.125 -0.875 15.125 -2 14 C-2.12514928 12.02380553 -2.1757276 10.04261827 -2.1875 8.0625 C-2.20167969 6.98097656 -2.21585938 5.89945313 -2.23046875 4.78515625 C-2 2 -2 2 0 0 Z " fill="#EF9C11" transform="translate(251,177)"/>
<path d="M0 0 C1.65 0 3.3 0 5 0 C5.33492713 2.45812591 5.6680097 4.91647727 6 7.375 C6.09539062 8.07367188 6.19078125 8.77234375 6.2890625 9.4921875 C7 14.7734375 7 14.7734375 7 17 C7.66 17 8.32 17 9 17 C9 17.66 9 18.32 9 19 C7.68 19 6.36 19 5 19 C4.67 22.96 4.34 26.92 4 31 C3.01 31 2.02 31 1 31 C-0.1555538 20.66192051 -0.09776087 10.38437692 0 0 Z M7 1 C7.66 1.33 8.32 1.66 9 2 C8.01 2.66 7.02 3.32 6 4 C6.33 3.01 6.66 2.02 7 1 Z " fill="#DCDBDB" transform="translate(173,219)"/>
<path d="M0 0 C1 1 1 1 1.0625 4.0625 C1.041875 5.031875 1.02125 6.00125 1 7 C-4.18082051 10.34594658 -7.84777564 11.56826496 -14 12 C-14 9.36 -14 6.72 -14 4 C-4.3960689 -0.68688577 -4.3960689 -0.68688577 0 0 Z " fill="#EB9A11" transform="translate(282,82)"/>
<path d="M0 0 C1 1 1 1 1.0625 4.0625 C1.041875 5.031875 1.02125 6.00125 1 7 C-0.74294678 7.86846831 -2.49468663 8.71930627 -4.25 9.5625 C-5.22453125 10.03816406 -6.1990625 10.51382813 -7.203125 11.00390625 C-10.09856297 12.03510273 -11.19966161 12.11346788 -14 11 C-14 8.69 -14 6.38 -14 4 C-4.3960689 -0.68688577 -4.3960689 -0.68688577 0 0 Z " fill="#EE9D11" transform="translate(282,114)"/>
<path d="M0 0 C0 1.98 0 3.96 0 6 C-5.04140164 8.81532819 -9.22621075 10.5188509 -15 11 C-15 8.36 -15 5.72 -15 3 C-13.4447088 2.29634398 -11.88035173 1.61270622 -10.3125 0.9375 C-9.44238281 0.55464844 -8.57226562 0.17179687 -7.67578125 -0.22265625 C-4.67786136 -1.0935848 -2.96719847 -0.85006226 0 0 Z " fill="#EE9C11" transform="translate(283,99)"/>
<path d="M0 0 C0.3125 2.8125 0.3125 2.8125 0 6 C-2.1875 7.75 -2.1875 7.75 -5 9 C-5.825 9.391875 -6.65 9.78375 -7.5 10.1875 C-10.14727001 11.04786275 -12.23521705 11.1579876 -15 11 C-15 8.69 -15 6.38 -15 4 C-13.4470724 3.12855131 -11.88214564 2.27846343 -10.3125 1.4375 C-9.44238281 0.96183594 -8.57226562 0.48617187 -7.67578125 -0.00390625 C-4.61671247 -1.14268368 -3.08136961 -0.92718689 0 0 Z " fill="#ED9C11" transform="translate(283,130)"/>
<path d="M0 0 C2.4375 0.875 2.4375 0.875 4.4375 3.875 C4.8891129 10.19758065 4.8891129 10.19758065 2.4375 13.875 C-0.5 14.375 -0.5 14.375 -3.5625 13.875 C-6.12204535 11.06775671 -6.58937209 9.54680221 -6.4375 5.75 C-5.222434 1.75764028 -4.41801763 -0.21551306 0 0 Z " fill="#171716" transform="translate(120.5625,223.125)"/>
<path d="M0 0 C2.4375 0.8125 2.4375 0.8125 4.4375 2.8125 C4.90126812 10.11684783 4.90126812 10.11684783 2.4375 13.8125 C-0.5625 14.125 -0.5625 14.125 -3.5625 13.8125 C-5.97736943 11.39763057 -5.8586925 10.68542211 -5.875 7.375 C-5.89175781 6.59253906 -5.90851563 5.81007812 -5.92578125 5.00390625 C-5.31086501 1.29457278 -3.76394927 -0.27541092 0 0 Z " fill="#161616" transform="translate(354.5625,223.1875)"/>
<path d="M0 0 C2.4375 0.875 2.4375 0.875 4.4375 3.875 C4.8891129 10.19758065 4.8891129 10.19758065 2.4375 13.875 C0.0943787 13.61938677 -2.24093403 13.28229228 -4.5625 12.875 C-6.1548093 9.69038141 -5.95155037 6.34108511 -5.5625 2.875 C-3.92978469 0.0392313 -3.26331106 -0.15918591 0 0 Z " fill="#121212" transform="translate(184.5625,223.125)"/>
<path d="M0 0 C0.125 2.875 0.125 2.875 0 6 C-2 8 -2 8 -5.2578125 8.1953125 C-6.53398437 8.17210937 -7.81015625 8.14890625 -9.125 8.125 C-11.04699219 8.09792969 -11.04699219 8.09792969 -13.0078125 8.0703125 C-14.48894531 8.03550781 -14.48894531 8.03550781 -16 8 C-15.796875 5.6484375 -15.796875 5.6484375 -15 3 C-12.890625 1.6015625 -12.890625 1.6015625 -10.25 0.625 C-9.38890625 0.28726563 -8.5278125 -0.05046875 -7.640625 -0.3984375 C-4.71862447 -1.06410034 -2.86284447 -0.79294613 0 0 Z " fill="#E49913" transform="translate(283,146)"/>
<path d="M0 0 C0.268125 0.598125 0.53625 1.19625 0.8125 1.8125 C3.01169766 5.86365358 5.31024913 7.35529321 9.6875 8.6875 C10.89986328 9.06455078 10.89986328 9.06455078 12.13671875 9.44921875 C12.75160156 9.63097656 13.36648438 9.81273437 14 10 C13.67 11.32 13.34 12.64 13 14 C10.625 14.125 10.625 14.125 8 14 C7.34 13.34 6.68 12.68 6 12 C3.34462628 11.43479997 0.70855287 11.26211802 -2 11 C-2 8.36 -2 5.72 -2 3 C-1.34 3 -0.68 3 0 3 C0 2.01 0 1.02 0 0 Z " fill="#1F1E1E" transform="translate(367,224)"/>
<path d="M0 0 C0.33 0 0.66 0 1 0 C2.0257259 4.41062136 2.03684712 6.92630576 0 11 C-0.33 10.34 -0.66 9.68 -1 9 C-1.886875 9.309375 -2.77375 9.61875 -3.6875 9.9375 C-9.48085106 11.79574468 -9.48085106 11.79574468 -12 12 C-13.8125 10.75 -13.8125 10.75 -15 9 C-15 8.01 -15 7.02 -15 6 C-10.05 6 -5.1 6 0 6 C0 4.02 0 2.04 0 0 Z " fill="#1C1C1C" transform="translate(303,226)"/>
<path d="M0 0 C5.28 0 10.56 0 16 0 C15.67 0.99 15.34 1.98 15 3 C11.6875 4.125 11.6875 4.125 8 5 C7.278125 5.268125 6.55625 5.53625 5.8125 5.8125 C4 6 4 6 1.75 4.75 C1.1725 4.1725 0.595 3.595 0 3 C0 2.01 0 1.02 0 0 Z " fill="#1B1B1B" transform="translate(220,232)"/>
<path d="M0 0 C4.455 0.99 4.455 0.99 9 2 C9.33 3.32 9.66 4.64 10 6 C9 7 9 7 6.5625 7.1875 C4 7 4 7 2 5 C0.01178687 4.60235737 -1.98944339 4.26224651 -4 4 C-4 3.67 -4 3.34 -4 3 C-2.35 2.67 -0.7 2.34 1 2 C0.67 1.34 0.34 0.68 0 0 Z " fill="#222222" transform="translate(242,231)"/>
<path d="M0 0 C2.64 0.33 5.28 0.66 8 1 C8.33 2.32 8.66 3.64 9 5 C3.25 6.125 3.25 6.125 1 5 C1 4.34 1 3.68 1 3 C-0.98 3 -2.96 3 -5 3 C-5 2.67 -5 2.34 -5 2 C-3.35 1.67 -1.7 1.34 0 1 C0 0.67 0 0.34 0 0 Z " fill="#222121" transform="translate(265,232)"/>
<path d="M0 0 C2.5625 0.1875 2.5625 0.1875 4.5625 2.1875 C4.5625 3.1775 4.5625 4.1675 4.5625 5.1875 C1.5925 5.1875 -1.3775 5.1875 -4.4375 5.1875 C-3.20220588 0.24632353 -3.20220588 0.24632353 0 0 Z " fill="#1C1C1C" transform="translate(292.4375,222.8125)"/>
<path d="M0 0 C2.4375 0.1875 2.4375 0.1875 5 1 C5.66 2.32 6.32 3.64 7 5 C3.7 5 0.4 5 -3 5 C-1 1 -1 1 0 0 Z " fill="#1B1B1B" transform="translate(223,223)"/>
<path d="M0 0 C2.31 0 4.62 0 7 0 C7.5625 1.9375 7.5625 1.9375 8 4 C7 5 7 5 4.5625 5.1875 C2 5 2 5 0 3 C0 2.01 0 1.02 0 0 Z " fill="#181818" transform="translate(373,233)"/>
<path d="M0 0 C1.5 1.125 1.5 1.125 3 3 C3.1875 6.1875 3.1875 6.1875 3 9 C2.01 8.67 1.02 8.34 0 8 C0 5.36 0 2.72 0 0 Z " fill="#19140D" transform="translate(281,179)"/>
<path d="M0 0 C0.66 0 1.32 0 2 0 C2.33 2.97 2.66 5.94 3 9 C1.68 8.67 0.36 8.34 -1 8 C-0.67 5.36 -0.34 2.72 0 0 Z " fill="#363635" transform="translate(280,228)"/>
<path d="M0 0 C1.32 0.33 2.64 0.66 4 1 C-0.30769231 4.93846154 -0.30769231 4.93846154 -3.8125 5.25 C-4.534375 5.1675 -5.25625 5.085 -6 5 C-5.38125 4.9175 -4.7625 4.835 -4.125 4.75 C-1.81562433 4.18741541 -1.81562433 4.18741541 -0.75 1.9375 C-0.5025 1.298125 -0.255 0.65875 0 0 Z " fill="#D0931A" transform="translate(295,177)"/>
<path d="M0 0 C0.99 0 1.98 0 3 0 C2.30058404 3.14737182 1.23921302 6.02588876 0 9 C-1.53445094 5.93109813 -0.54984289 3.29905734 0 0 Z " fill="#1A1A1A" transform="translate(195,229)"/>
</svg>
